:SAMPLES-PER-SECOND 30
:FULLY-SPECIFIED
:DEGREES
83
root  5.02929 40.0942 3.03378 47.8376 -88.2472 -49.0476
RightUpLeg  1.63114 -8.35115 -8.50396
RightLeg  1.17652 -5.07846 -0.921396
RightFoot  2.93952 -1.56036 12.5706
RightToes  1.16414e-010 0 -3.6325e-017
Spine  4.28608 -1.66474 1.62362
Spine1  5.59293 -1.80386 0.537095
HEad  -5.80819 -17.5677 2.15348
LeftShoulder1  1.73334 -4.61656 -14.461
LeftArm  14.3735 22.9415 -57.3981
LeftForeArm  -3.43048 -22.2325 -5.49269
LeftHand  -0.530923 -0.566881 10.461
RightShoulder  1.53764 2.76283 18.031
RightArm  16.6373 -25.6446 50.0664
RightForeArm  8.11027 23.2002 4.63923
RightHand  -0.414226 -0.40859 -9.66986
LeftUpLeg  3.68412 11.5952 13.5214
LeftLeg  1.49772 4.62826 1.90271
LeftFoot  0.43188 1.66306 -16.0683
LeftToes  7.09373e-011 9.9627e-011 8.96859e-012
84
root  5.0296 40.1032 3.05743 54.5883 -88.4353 -55.7716
RightUpLeg  1.71399 -8.39231 -8.59039
RightLeg  0.81479 -4.80032 -0.837701
RightFoot  3.10542 -1.57584 12.5555
RightToes  1.16414e-010 0 -3.6325e-017
Spine  4.02796 -1.63301 1.45226
Spine1  6.04859 -1.80503 0.585437
HEad  -6.0496 -17.8688 2.25628
LeftShoulder1  1.73926 -4.59071 -14.6157
LeftArm  15.1247 22.7495 -57.4042
LeftForeArm  -1.98187 -23.0781 -5.16488
LeftHand  -0.554246 -0.484966 11.063
RightShoulder  1.46996 2.52232 17.8785
RightArm  17.0812 -25.7861 50.6417
RightForeArm  8.45545 23.1656 4.63424
RightHand  -0.383166 -0.715027 -9.49137
LeftUpLeg  3.89276 11.5977 13.4709
LeftLeg  1.21496 4.88406 1.85911
LeftFoot  0.461478 1.66603 -16.058
LeftToes  7.09373e-011 9.9627e-011 8.96859e-012
85
root  5.03504 40.1101 3.06909 67.3437 -88.5965 -68.4278
RightUpLeg  1.56198 -8.37923 -8.57917
RightLeg  0.686148 -4.48574 -0.794935
RightFoot  3.25156 -1.59163 12.5592
RightToes  1.16414e-010 0 -3.6325e-017
Spine  3.75263 -1.6328 1.2891
Spine1  6.42474 -1.83503 0.646123
HEad  -6.24527 -17.9294 2.25888
LeftShoulder1  1.70439 -4.46009 -14.5213
LeftArm  14.6896 22.5503 -57.6209
LeftForeArm  -2.14687 -23.5265 -5.15162
LeftHand  -0.516302 -0.0458951 11.1002
RightShoulder  1.43419 2.36098 17.9466
RightArm  17.3794 -25.7891 50.811
RightForeArm  7.96379 23.2883 4.64668
RightHand  -0.423258 -0.394431 -9.84137
LeftUpLeg  4.02174 11.6477 13.4848
LeftLeg  0.964409 5.23748 1.7949
LeftFoot  0.553733 1.68573 -16.1256
LeftToes  7.09373e-011 9.9627e-011 8.96859e-012
86
root  5.04788 40.113 3.07425 85.2903 -88.6682 -86.2565
RightUpLeg  1.28434 -8.32334 -8.5156
RightLeg  0.707956 -4.14168 -0.792612
RightFoot  3.34388 -1.60116 12.558
RightToes  1.16414e-010 0 -3.6325e-017
Spine  3.56484 -1.65645 1.10563
Spine1  6.61468 -1.89381 0.744657
HEad  -6.22767 -17.83 2.12965
LeftShoulder1  1.6638 -4.32115 -14.3691
LeftArm  13.8149 22.3361 -57.8854
LeftForeArm  -3.32801 -23.5769 -5.22059
LeftHand  -0.496297 0.0471509 10.8552
RightShoulder  1.44613 2.35644 18.1882
RightArm  17.1949 -25.7429 50.6847
RightForeArm  7.64029 23.4893 4.65807
RightHand  -0.494798 0.242873 -10.2627
LeftUpLeg  4.07223 11.6787 13.4878
LeftLeg  0.847139 5.6627 1.77174
LeftFoot  0.590209 1.69121 -16.1238
LeftToes  7.09373e-011 9.9627e-011 8.96859e-012
87
root  5.06917 40.114 3.0737 103.095 -88.5847 -104.006
RightUpLeg  1.10904 -8.24712 -8.42113
RightLeg  0.641091 -3.82621 -0.788052
RightFoot  3.43021 -1.60476 12.5164
RightToes  1.16414e-010 0 -3.6325e-017
Spine  3.56554 -1.71659 0.883205
Spine1  6.60433 -2.01825 0.956483
HEad  -6.03137 -17.5218 1.85904
LeftShoulder1  1.65226 -4.25294 -14.4107
LeftArm  12.9335 22.1102 -57.9833
LeftForeArm  -4.40799 -23.3745 -5.26791
LeftHand  -0.513802 -0.256477 10.6552
RightShoulder  1.46265 2.40182 18.2861
RightArm  16.4881 -25.6194 50.6324
RightForeArm  7.51267 23.7771 4.69549
RightHand  -0.533408 0.490331 -10.6154
LeftUpLeg  4.08752 11.6995 13.509
LeftLeg  0.888811 6.05143 1.80263
LeftFoot  0.556704 1.6781 -16.0368
LeftToes  7.09373e-011 9.9627e-011 8.96859e-012
88
root  5.09681 40.1152 3.06791 116.085 -88.3817 -117.001
RightUpLeg  1.0537 -8.21097 -8.3298
RightLeg  0.473059 -3.51549 -0.726831
RightFoot  3.5511 -1.60726 12.4396
RightToes  1.16414e-010 0 -3.6325e-017
Spine  3.70903 -1.82526 0.625551
Spine1  6.49627 -2.22284 1.30021
HEad  -5.79208 -17.0449 1.48625
LeftShoulder1  1.66144 -4.22307 -14.6334
LeftArm  12.2425 21.9011 -57.8765
LeftForeArm  -4.90534 -23.1874 -5.3011
LeftHand  -0.518263 -0.361731 10.5591
RightShoulder  1.4529 2.40342 18.0992
RightArm  15.4927 -25.3344 50.8166
RightForeArm  7.4085 24.1577 4.78328
RightHand  -0.530013 0.270058 -10.9378
LeftUpLeg  4.13771 11.7774 13.6075
LeftLeg  0.937886 6.34175 1.7998
LeftFoot  0.558118 1.67303 -16.001
LeftToes  7.09373e-011 9.9627e-011 8.96859e-012
89
root  5.12036 40.1167 3.05949 126.036 -88.0927 -126.962
RightUpLeg  0.985683 -8.22524 -8.25359
RightLeg  0.349509 -3.1303 -0.616883
RightFoot  3.67865 -1.6126 12.3802
RightToes  1.16414e-010 0 -3.6325e-017
Spine  3.77457 -1.93616 0.417606
Spine1  6.5182 -2.41349 1.58763
HEad  -5.64346 -16.6602 1.21465
LeftShoulder1  1.66597 -4.17821 -14.8102
LeftArm  11.9545 21.6584 -57.6776
LeftForeArm  -5.04816 -23.1364 -5.31353
LeftHand  -0.492456 -0.0675149 10.5535
RightShoulder  1.43759 2.38641 17.8942
RightArm  14.4479 -24.9002 51.0101
RightForeArm  7.48788 24.6497 4.88716
RightHand  -0.527667 0.0741081 -11.2598
LeftUpLeg  4.25524 11.9217 13.7702
LeftLeg  0.909173 6.61048 1.72941
LeftFoot  0.595016 1.68245 -16.0412
LeftToes  7.09373e-011 9.9627e-011 8.96859e-012
90
root  5.13108 40.1165 3.04827 134.688 -87.6819 -135.593
RightUpLeg  0.852146 -8.2192 -8.14462
RightLeg  0.288251 -2.67386 -0.516531
RightFoot  3.77349 -1.61916 12.356
RightToes  1.16414e-010 0 -3.6325e-017
Spine  3.60326 -1.98629 0.340051
Spine1  6.8113 -2.48608 1.63085
HEad  -5.6622 -16.5023 1.2368
LeftShoulder1  1.66805 -4.1498 -14.7953
LeftArm  11.9371 21.332 -57.4947
LeftForeArm  -4.98072 -23.1329 -5.31021
LeftHand  -0.476574 0.115699 10.5529
RightShoulder  1.44561 2.39893 17.9853
RightArm  13.4156 -24.398 50.9189
RightForeArm  7.94416 25.2676 4.99966
RightHand  -0.554979 0.178031 -11.6266
LeftUpLeg  4.38549 12.0792 13.9531
LeftLeg  0.908535 6.96059 1.66801
LeftFoot  0.569602 1.68274 -16.0766
LeftToes  7.09373e-011 9.9627e-011 8.96859e-012
91
root  5.13513 40.1132 3.03186 140.974 -87.1841 -141.831
RightUpLeg  0.70517 -8.15737 -7.97729
RightLeg  0.196836 -2.23993 -0.447754
RightFoot  3.84676 -1.62352 12.3322
RightToes  1.16414e-010 0 -3.6325e-017
Spine  3.32059 -1.98343 0.310363
Spine1  7.20601 -2.48134 1.5678
HEad  -5.79011 -16.385 1.46376
LeftShoulder1  1.66877 -4.19844 -14.6438
LeftArm  11.7739 21.0245 -57.3863
LeftForeArm  -4.69984 -23.1021 -5.29872
LeftHand  -0.493618 -0.146742 10.4353
RightShoulder  1.46851 2.42435 18.2911
RightArm  12.4674 -23.8872 50.5713
RightForeArm  8.57873 25.9632 5.12136
RightHand  -0.601154 0.423497 -12.0767
LeftUpLeg  4.45278 12.2023 14.1325
LeftLeg  1.02036 7.36702 1.6766
LeftFoot  0.479932 1.6743 -16.1127
LeftToes  7.09373e-011 9.9627e-011 8.96859e-012
92
root  5.14358 40.1099 3.01304 144.612 -86.7327 -145.422
RightUpLeg  0.601668 -8.09792 -7.81436
RightLeg  0.0507452 -1.88558 -0.379114
RightFoot  3.93256 -1.62954 12.3114
RightToes  1.16414e-010 0 -3.6325e-017
Spine  3.18871 -1.99163 0.18402
Spine1  7.38109 -2.52112 1.66323
HEad  -5.84101 -16.1402 1.638
LeftShoulder1  1.6674 -4.28809 -14.477
LeftArm  11.3411 20.8802 -57.364
LeftForeArm  -4.41322 -23.0697 -5.287
LeftHand  -0.515734 -0.499976 10.2719
RightShoulder  1.47597 2.41855 18.4542
RightArm  11.6878 -23.4255 50.2755
RightForeArm  9.08618 26.6396 5.24706
RightHand  -0.642838 0.606146 -12.5287
LeftUpLeg  4.47609 12.2804 14.2872
LeftLeg  1.14893 7.72374 1.72162
LeftFoot  0.42115 1.67511 -16.1972
LeftToes  7.09373e-011 9.9627e-011 8.96859e-012
93
root  5.15532 40.1092 2.99875 146.622 -86.3979 -147.418
RightUpLeg  0.56505 -8.08449 -7.71426
RightLeg  -0.101838 -1.59877 -0.298841
RightFoot  4.02883 -1.64415 12.3459
RightToes  1.16414e-010 0 -3.6325e-017
Spine  3.28583 -2.04224 -0.00933471
Spine1  7.24157 -2.62782 1.88675
HEad  -5.71504 -15.8256 1.66027
LeftShoulder1  1.66244 -4.3133 -14.3745
LeftArm  10.9554 20.8729 -57.3531
LeftForeArm  -4.40193 -23.0737 -5.28516
LeftHand  -0.517778 -0.509543 10.2983
RightShoulder  1.45793 2.37694 18.3128
RightArm  11.0763 -23.0899 50.2452
RightForeArm  9.3755 27.2517 5.37154
RightHand  -0.668474 0.690547 -12.8485
LeftUpLeg  4.5363 12.3329 14.4045
LeftLeg  1.18505 7.98473 1.74853
LeftFoot  0.419695 1.68411 -16.2832
LeftToes  7.09373e-011 9.9627e-011 8.96859e-012
94
root  5.16371 40.1084 2.99013 147.742 -86.1472 -148.56
RightUpLeg  0.576152 -8.07854 -7.64336
RightLeg  -0.211694 -1.38398 -0.241434
RightFoot  4.09819 -1.66183 12.4228
RightToes  1.16414e-010 0 -3.6325e-017
Spine  3.47146 -2.10606 -0.128185
Spine1  6.98884 -2.72581 2.03011
HEad  -5.54852 -15.5923 1.64643
LeftShoulder1  1.65443 -4.27456 -14.3764
LeftArm  10.8494 20.8587 -57.2435
LeftForeArm  -4.64061 -23.1219 -5.2916
LeftHand  -0.509901 -0.271415 10.5488
RightShoulder  1.43275 2.33513 18.0378
RightArm  10.561 -22.9086 50.3739
RightForeArm  9.5676 27.832 5.49548
RightHand  -0.679889 0.71989 -13.0044
LeftUpLeg  4.63339 12.3799 14.5023
LeftLeg  1.18208 8.1741 1.76338
LeftFoot  0.417094 1.68869 -16.3156
LeftToes  7.09373e-011 9.9627e-011 8.96859e-012
95
root  5.17223 40.1077 2.98115 148.303 -85.9656 -149.158
RightUpLeg  0.576621 -8.04772 -7.56327
RightLeg  -0.238976 -1.26647 -0.225879
RightFoot  4.12344 -1.66699 12.4413
RightToes  1.16414e-010 0 -3.6325e-017
Spine  3.6257 -2.13366 -0.184272
Spine1  6.81479 -2.76835 2.09371
HEad  -5.51628 -15.9154 1.758
LeftShoulder1  1.66617 -4.30455 -14.4516
LeftArm  10.8887 20.7604 -57.0733
LeftForeArm  -4.86839 -23.1764 -5.29768
LeftHand  -0.508954 -0.112672 10.8183
RightShoulder  1.42005 2.32531 17.8457
RightArm  10.1354 -22.8373 50.3997
RightForeArm  9.81053 28.3681 5.60762
RightHand  -0.687994 0.753793 -13.0875
LeftUpLeg  4.69902 12.4046 14.5774
LeftLeg  1.21048 8.32206 1.80272
LeftFoot  0.420055 1.69346 -16.3395
LeftToes  7.09373e-011 9.9627e-011 8.96859e-012
